<mxfile host="app.diagrams.net" modified="2023-09-20T13:51:54.199Z" agent="Mozilla/5.0 (Macintosh; Intel Mac OS X 10.15; rv:109.0) Gecko/20100101 Firefox/116.0" etag="zyOmBDvyGPk-DmWDckyT" version="21.6.1" type="device" pages="2">
  <diagram id="R2lEEEUBdFMjLlhIrx00" name="Page-1">
    <mxGraphModel dx="1434" dy="822" grid="1" gridSize="10" guides="1" tooltips="1" connect="1" arrows="1" fold="1" page="1" pageScale="1" pageWidth="850" pageHeight="1100" math="0" shadow="0" extFonts="Permanent Marker^https://fonts.googleapis.com/css?family=Permanent+Marker">
      <root>
        <mxCell id="0" />
        <mxCell id="1" parent="0" />
        <mxCell id="C-vyLk0tnHw3VtMMgP7b-2" value="Employees" style="shape=table;startSize=30;container=1;collapsible=1;childLayout=tableLayout;fixedRows=1;rowLines=0;fontStyle=1;align=center;resizeLast=1;" parent="1" vertex="1">
          <mxGeometry x="120" y="200" width="250" height="60" as="geometry" />
        </mxCell>
        <mxCell id="C-vyLk0tnHw3VtMMgP7b-6" value="" style="shape=partialRectangle;collapsible=0;dropTarget=0;pointerEvents=0;fillColor=none;points=[[0,0.5],[1,0.5]];portConstraint=eastwest;top=0;left=0;right=0;bottom=0;" parent="C-vyLk0tnHw3VtMMgP7b-2" vertex="1">
          <mxGeometry y="30" width="250" height="30" as="geometry" />
        </mxCell>
        <mxCell id="C-vyLk0tnHw3VtMMgP7b-7" value="" style="shape=partialRectangle;overflow=hidden;connectable=0;fillColor=none;top=0;left=0;bottom=0;right=0;" parent="C-vyLk0tnHw3VtMMgP7b-6" vertex="1">
          <mxGeometry width="30" height="30" as="geometry">
            <mxRectangle width="30" height="30" as="alternateBounds" />
          </mxGeometry>
        </mxCell>
        <mxCell id="C-vyLk0tnHw3VtMMgP7b-8" value="Name varchar(50) NOT NULL " style="shape=partialRectangle;overflow=hidden;connectable=0;fillColor=none;top=0;left=0;bottom=0;right=0;align=left;spacingLeft=6;" parent="C-vyLk0tnHw3VtMMgP7b-6" vertex="1">
          <mxGeometry x="30" width="220" height="30" as="geometry">
            <mxRectangle width="220" height="30" as="alternateBounds" />
          </mxGeometry>
        </mxCell>
        <mxCell id="C-vyLk0tnHw3VtMMgP7b-23" value="Customers" style="shape=table;startSize=30;container=1;collapsible=1;childLayout=tableLayout;fixedRows=1;rowLines=0;fontStyle=1;align=center;resizeLast=1;" parent="1" vertex="1">
          <mxGeometry x="490" y="420" width="250" height="180" as="geometry" />
        </mxCell>
        <mxCell id="C-vyLk0tnHw3VtMMgP7b-24" value="" style="shape=partialRectangle;collapsible=0;dropTarget=0;pointerEvents=0;fillColor=none;points=[[0,0.5],[1,0.5]];portConstraint=eastwest;top=0;left=0;right=0;bottom=1;" parent="C-vyLk0tnHw3VtMMgP7b-23" vertex="1">
          <mxGeometry y="30" width="250" height="30" as="geometry" />
        </mxCell>
        <mxCell id="C-vyLk0tnHw3VtMMgP7b-25" value="PK" style="shape=partialRectangle;overflow=hidden;connectable=0;fillColor=none;top=0;left=0;bottom=0;right=0;fontStyle=1;" parent="C-vyLk0tnHw3VtMMgP7b-24" vertex="1">
          <mxGeometry width="30" height="30" as="geometry">
            <mxRectangle width="30" height="30" as="alternateBounds" />
          </mxGeometry>
        </mxCell>
        <mxCell id="C-vyLk0tnHw3VtMMgP7b-26" value="Id int NOT NULL " style="shape=partialRectangle;overflow=hidden;connectable=0;fillColor=none;top=0;left=0;bottom=0;right=0;align=left;spacingLeft=6;fontStyle=5;" parent="C-vyLk0tnHw3VtMMgP7b-24" vertex="1">
          <mxGeometry x="30" width="220" height="30" as="geometry">
            <mxRectangle width="220" height="30" as="alternateBounds" />
          </mxGeometry>
        </mxCell>
        <mxCell id="1q5uws78fJFRyL0Sj0jH-2" value="" style="shape=tableRow;horizontal=0;startSize=0;swimlaneHead=0;swimlaneBody=0;fillColor=none;collapsible=0;dropTarget=0;points=[[0,0.5],[1,0.5]];portConstraint=eastwest;top=0;left=0;right=0;bottom=0;" parent="C-vyLk0tnHw3VtMMgP7b-23" vertex="1">
          <mxGeometry y="60" width="250" height="30" as="geometry" />
        </mxCell>
        <mxCell id="1q5uws78fJFRyL0Sj0jH-3" value="" style="shape=partialRectangle;connectable=0;fillColor=none;top=0;left=0;bottom=0;right=0;editable=1;overflow=hidden;" parent="1q5uws78fJFRyL0Sj0jH-2" vertex="1">
          <mxGeometry width="30" height="30" as="geometry">
            <mxRectangle width="30" height="30" as="alternateBounds" />
          </mxGeometry>
        </mxCell>
        <mxCell id="1q5uws78fJFRyL0Sj0jH-4" value="Name varchar(50) NOT NULL" style="shape=partialRectangle;connectable=0;fillColor=none;top=0;left=0;bottom=0;right=0;align=left;spacingLeft=6;overflow=hidden;" parent="1q5uws78fJFRyL0Sj0jH-2" vertex="1">
          <mxGeometry x="30" width="220" height="30" as="geometry">
            <mxRectangle width="220" height="30" as="alternateBounds" />
          </mxGeometry>
        </mxCell>
        <mxCell id="1q5uws78fJFRyL0Sj0jH-8" value="" style="shape=tableRow;horizontal=0;startSize=0;swimlaneHead=0;swimlaneBody=0;fillColor=none;collapsible=0;dropTarget=0;points=[[0,0.5],[1,0.5]];portConstraint=eastwest;top=0;left=0;right=0;bottom=0;" parent="C-vyLk0tnHw3VtMMgP7b-23" vertex="1">
          <mxGeometry y="90" width="250" height="30" as="geometry" />
        </mxCell>
        <mxCell id="1q5uws78fJFRyL0Sj0jH-9" value="" style="shape=partialRectangle;connectable=0;fillColor=none;top=0;left=0;bottom=0;right=0;editable=1;overflow=hidden;" parent="1q5uws78fJFRyL0Sj0jH-8" vertex="1">
          <mxGeometry width="30" height="30" as="geometry">
            <mxRectangle width="30" height="30" as="alternateBounds" />
          </mxGeometry>
        </mxCell>
        <mxCell id="1q5uws78fJFRyL0Sj0jH-10" value="Address varchar(200) NOT NULL" style="shape=partialRectangle;connectable=0;fillColor=none;top=0;left=0;bottom=0;right=0;align=left;spacingLeft=6;overflow=hidden;" parent="1q5uws78fJFRyL0Sj0jH-8" vertex="1">
          <mxGeometry x="30" width="220" height="30" as="geometry">
            <mxRectangle width="220" height="30" as="alternateBounds" />
          </mxGeometry>
        </mxCell>
        <mxCell id="1q5uws78fJFRyL0Sj0jH-11" value="" style="shape=tableRow;horizontal=0;startSize=0;swimlaneHead=0;swimlaneBody=0;fillColor=none;collapsible=0;dropTarget=0;points=[[0,0.5],[1,0.5]];portConstraint=eastwest;top=0;left=0;right=0;bottom=0;" parent="C-vyLk0tnHw3VtMMgP7b-23" vertex="1">
          <mxGeometry y="120" width="250" height="30" as="geometry" />
        </mxCell>
        <mxCell id="1q5uws78fJFRyL0Sj0jH-12" value="" style="shape=partialRectangle;connectable=0;fillColor=none;top=0;left=0;bottom=0;right=0;editable=1;overflow=hidden;" parent="1q5uws78fJFRyL0Sj0jH-11" vertex="1">
          <mxGeometry width="30" height="30" as="geometry">
            <mxRectangle width="30" height="30" as="alternateBounds" />
          </mxGeometry>
        </mxCell>
        <mxCell id="1q5uws78fJFRyL0Sj0jH-13" value="PostalCode char(6) NOT NULL" style="shape=partialRectangle;connectable=0;fillColor=none;top=0;left=0;bottom=0;right=0;align=left;spacingLeft=6;overflow=hidden;" parent="1q5uws78fJFRyL0Sj0jH-11" vertex="1">
          <mxGeometry x="30" width="220" height="30" as="geometry">
            <mxRectangle width="220" height="30" as="alternateBounds" />
          </mxGeometry>
        </mxCell>
        <mxCell id="1q5uws78fJFRyL0Sj0jH-14" value="" style="shape=tableRow;horizontal=0;startSize=0;swimlaneHead=0;swimlaneBody=0;fillColor=none;collapsible=0;dropTarget=0;points=[[0,0.5],[1,0.5]];portConstraint=eastwest;top=0;left=0;right=0;bottom=0;" parent="C-vyLk0tnHw3VtMMgP7b-23" vertex="1">
          <mxGeometry y="150" width="250" height="30" as="geometry" />
        </mxCell>
        <mxCell id="1q5uws78fJFRyL0Sj0jH-15" value="" style="shape=partialRectangle;connectable=0;fillColor=none;top=0;left=0;bottom=0;right=0;editable=1;overflow=hidden;" parent="1q5uws78fJFRyL0Sj0jH-14" vertex="1">
          <mxGeometry width="30" height="30" as="geometry">
            <mxRectangle width="30" height="30" as="alternateBounds" />
          </mxGeometry>
        </mxCell>
        <mxCell id="1q5uws78fJFRyL0Sj0jH-16" value="Residence varchar(100) NOT NULL" style="shape=partialRectangle;connectable=0;fillColor=none;top=0;left=0;bottom=0;right=0;align=left;spacingLeft=6;overflow=hidden;" parent="1q5uws78fJFRyL0Sj0jH-14" vertex="1">
          <mxGeometry x="30" width="220" height="30" as="geometry">
            <mxRectangle width="220" height="30" as="alternateBounds" />
          </mxGeometry>
        </mxCell>
        <mxCell id="1q5uws78fJFRyL0Sj0jH-42" value="Appointments" style="shape=table;startSize=30;container=1;collapsible=1;childLayout=tableLayout;fixedRows=1;rowLines=0;fontStyle=1;align=center;resizeLast=1;html=1;" parent="1" vertex="1">
          <mxGeometry x="120" y="420" width="250" height="210" as="geometry" />
        </mxCell>
        <mxCell id="1q5uws78fJFRyL0Sj0jH-43" value="" style="shape=tableRow;horizontal=0;startSize=0;swimlaneHead=0;swimlaneBody=0;fillColor=none;collapsible=0;dropTarget=0;points=[[0,0.5],[1,0.5]];portConstraint=eastwest;top=0;left=0;right=0;bottom=1;" parent="1q5uws78fJFRyL0Sj0jH-42" vertex="1">
          <mxGeometry y="30" width="250" height="30" as="geometry" />
        </mxCell>
        <mxCell id="1q5uws78fJFRyL0Sj0jH-44" value="PK" style="shape=partialRectangle;connectable=0;fillColor=none;top=0;left=0;bottom=0;right=0;fontStyle=1;overflow=hidden;whiteSpace=wrap;html=1;" parent="1q5uws78fJFRyL0Sj0jH-43" vertex="1">
          <mxGeometry width="30" height="30" as="geometry">
            <mxRectangle width="30" height="30" as="alternateBounds" />
          </mxGeometry>
        </mxCell>
        <mxCell id="1q5uws78fJFRyL0Sj0jH-45" value="Id int NOT NULL" style="shape=partialRectangle;connectable=0;fillColor=none;top=0;left=0;bottom=0;right=0;align=left;spacingLeft=6;fontStyle=5;overflow=hidden;whiteSpace=wrap;html=1;" parent="1q5uws78fJFRyL0Sj0jH-43" vertex="1">
          <mxGeometry x="30" width="220" height="30" as="geometry">
            <mxRectangle width="220" height="30" as="alternateBounds" />
          </mxGeometry>
        </mxCell>
        <mxCell id="1q5uws78fJFRyL0Sj0jH-52" value="" style="shape=tableRow;horizontal=0;startSize=0;swimlaneHead=0;swimlaneBody=0;fillColor=none;collapsible=0;dropTarget=0;points=[[0,0.5],[1,0.5]];portConstraint=eastwest;top=0;left=0;right=0;bottom=0;" parent="1q5uws78fJFRyL0Sj0jH-42" vertex="1">
          <mxGeometry y="60" width="250" height="30" as="geometry" />
        </mxCell>
        <mxCell id="1q5uws78fJFRyL0Sj0jH-53" value="" style="shape=partialRectangle;connectable=0;fillColor=none;top=0;left=0;bottom=0;right=0;editable=1;overflow=hidden;whiteSpace=wrap;html=1;" parent="1q5uws78fJFRyL0Sj0jH-52" vertex="1">
          <mxGeometry width="30" height="30" as="geometry">
            <mxRectangle width="30" height="30" as="alternateBounds" />
          </mxGeometry>
        </mxCell>
        <mxCell id="1q5uws78fJFRyL0Sj0jH-54" value="Scheduled timestamp NOT NULL" style="shape=partialRectangle;connectable=0;fillColor=none;top=0;left=0;bottom=0;right=0;align=left;spacingLeft=6;overflow=hidden;whiteSpace=wrap;html=1;" parent="1q5uws78fJFRyL0Sj0jH-52" vertex="1">
          <mxGeometry x="30" width="220" height="30" as="geometry">
            <mxRectangle width="220" height="30" as="alternateBounds" />
          </mxGeometry>
        </mxCell>
        <mxCell id="1q5uws78fJFRyL0Sj0jH-46" value="" style="shape=tableRow;horizontal=0;startSize=0;swimlaneHead=0;swimlaneBody=0;fillColor=none;collapsible=0;dropTarget=0;points=[[0,0.5],[1,0.5]];portConstraint=eastwest;top=0;left=0;right=0;bottom=0;" parent="1q5uws78fJFRyL0Sj0jH-42" vertex="1">
          <mxGeometry y="90" width="250" height="30" as="geometry" />
        </mxCell>
        <mxCell id="1q5uws78fJFRyL0Sj0jH-47" value="FK" style="shape=partialRectangle;connectable=0;fillColor=none;top=0;left=0;bottom=0;right=0;editable=1;overflow=hidden;whiteSpace=wrap;html=1;" parent="1q5uws78fJFRyL0Sj0jH-46" vertex="1">
          <mxGeometry width="30" height="30" as="geometry">
            <mxRectangle width="30" height="30" as="alternateBounds" />
          </mxGeometry>
        </mxCell>
        <mxCell id="1q5uws78fJFRyL0Sj0jH-48" value="CustomerId int NOT NULL" style="shape=partialRectangle;connectable=0;fillColor=none;top=0;left=0;bottom=0;right=0;align=left;spacingLeft=6;overflow=hidden;whiteSpace=wrap;html=1;" parent="1q5uws78fJFRyL0Sj0jH-46" vertex="1">
          <mxGeometry x="30" width="220" height="30" as="geometry">
            <mxRectangle width="220" height="30" as="alternateBounds" />
          </mxGeometry>
        </mxCell>
        <mxCell id="1q5uws78fJFRyL0Sj0jH-49" value="" style="shape=tableRow;horizontal=0;startSize=0;swimlaneHead=0;swimlaneBody=0;fillColor=none;collapsible=0;dropTarget=0;points=[[0,0.5],[1,0.5]];portConstraint=eastwest;top=0;left=0;right=0;bottom=0;" parent="1q5uws78fJFRyL0Sj0jH-42" vertex="1">
          <mxGeometry y="120" width="250" height="30" as="geometry" />
        </mxCell>
        <mxCell id="1q5uws78fJFRyL0Sj0jH-50" value="FK" style="shape=partialRectangle;connectable=0;fillColor=none;top=0;left=0;bottom=0;right=0;editable=1;overflow=hidden;whiteSpace=wrap;html=1;" parent="1q5uws78fJFRyL0Sj0jH-49" vertex="1">
          <mxGeometry width="30" height="30" as="geometry">
            <mxRectangle width="30" height="30" as="alternateBounds" />
          </mxGeometry>
        </mxCell>
        <mxCell id="1q5uws78fJFRyL0Sj0jH-51" value="EmployeeId int NOT NULL" style="shape=partialRectangle;connectable=0;fillColor=none;top=0;left=0;bottom=0;right=0;align=left;spacingLeft=6;overflow=hidden;whiteSpace=wrap;html=1;" parent="1q5uws78fJFRyL0Sj0jH-49" vertex="1">
          <mxGeometry x="30" width="220" height="30" as="geometry">
            <mxRectangle width="220" height="30" as="alternateBounds" />
          </mxGeometry>
        </mxCell>
        <mxCell id="1q5uws78fJFRyL0Sj0jH-94" value="" style="shape=tableRow;horizontal=0;startSize=0;swimlaneHead=0;swimlaneBody=0;fillColor=none;collapsible=0;dropTarget=0;points=[[0,0.5],[1,0.5]];portConstraint=eastwest;top=0;left=0;right=0;bottom=0;" parent="1q5uws78fJFRyL0Sj0jH-42" vertex="1">
          <mxGeometry y="150" width="250" height="30" as="geometry" />
        </mxCell>
        <mxCell id="1q5uws78fJFRyL0Sj0jH-95" value="" style="shape=partialRectangle;connectable=0;fillColor=none;top=0;left=0;bottom=0;right=0;editable=1;overflow=hidden;" parent="1q5uws78fJFRyL0Sj0jH-94" vertex="1">
          <mxGeometry width="30" height="30" as="geometry">
            <mxRectangle width="30" height="30" as="alternateBounds" />
          </mxGeometry>
        </mxCell>
        <mxCell id="1q5uws78fJFRyL0Sj0jH-96" value="CheckedIn timestamp" style="shape=partialRectangle;connectable=0;fillColor=none;top=0;left=0;bottom=0;right=0;align=left;spacingLeft=6;overflow=hidden;" parent="1q5uws78fJFRyL0Sj0jH-94" vertex="1">
          <mxGeometry x="30" width="220" height="30" as="geometry">
            <mxRectangle width="220" height="30" as="alternateBounds" />
          </mxGeometry>
        </mxCell>
        <mxCell id="1q5uws78fJFRyL0Sj0jH-97" value="" style="shape=tableRow;horizontal=0;startSize=0;swimlaneHead=0;swimlaneBody=0;fillColor=none;collapsible=0;dropTarget=0;points=[[0,0.5],[1,0.5]];portConstraint=eastwest;top=0;left=0;right=0;bottom=0;" parent="1q5uws78fJFRyL0Sj0jH-42" vertex="1">
          <mxGeometry y="180" width="250" height="30" as="geometry" />
        </mxCell>
        <mxCell id="1q5uws78fJFRyL0Sj0jH-98" value="" style="shape=partialRectangle;connectable=0;fillColor=none;top=0;left=0;bottom=0;right=0;editable=1;overflow=hidden;" parent="1q5uws78fJFRyL0Sj0jH-97" vertex="1">
          <mxGeometry width="30" height="30" as="geometry">
            <mxRectangle width="30" height="30" as="alternateBounds" />
          </mxGeometry>
        </mxCell>
        <mxCell id="1q5uws78fJFRyL0Sj0jH-99" value="CheckedOut timestamp" style="shape=partialRectangle;connectable=0;fillColor=none;top=0;left=0;bottom=0;right=0;align=left;spacingLeft=6;overflow=hidden;" parent="1q5uws78fJFRyL0Sj0jH-97" vertex="1">
          <mxGeometry x="30" width="220" height="30" as="geometry">
            <mxRectangle width="220" height="30" as="alternateBounds" />
          </mxGeometry>
        </mxCell>
        <mxCell id="1q5uws78fJFRyL0Sj0jH-81" value="Actions" style="shape=table;startSize=30;container=1;collapsible=1;childLayout=tableLayout;fixedRows=1;rowLines=0;fontStyle=1;align=center;resizeLast=1;html=1;whiteSpace=wrap;" parent="1" vertex="1">
          <mxGeometry x="120" y="740" width="250" height="180" as="geometry" />
        </mxCell>
        <mxCell id="msufzd7uYxtmhXxplaaa-10" value="" style="shape=tableRow;horizontal=0;startSize=0;swimlaneHead=0;swimlaneBody=0;fillColor=none;collapsible=0;dropTarget=0;points=[[0,0.5],[1,0.5]];portConstraint=eastwest;top=0;left=0;right=0;bottom=1;" vertex="1" parent="1q5uws78fJFRyL0Sj0jH-81">
          <mxGeometry y="30" width="250" height="30" as="geometry" />
        </mxCell>
        <mxCell id="msufzd7uYxtmhXxplaaa-11" value="PK" style="shape=partialRectangle;connectable=0;fillColor=none;top=0;left=0;bottom=0;right=0;fontStyle=1;overflow=hidden;whiteSpace=wrap;html=1;" vertex="1" parent="msufzd7uYxtmhXxplaaa-10">
          <mxGeometry width="60" height="30" as="geometry">
            <mxRectangle width="60" height="30" as="alternateBounds" />
          </mxGeometry>
        </mxCell>
        <mxCell id="msufzd7uYxtmhXxplaaa-12" value="Id int NOT NULL" style="shape=partialRectangle;connectable=0;fillColor=none;top=0;left=0;bottom=0;right=0;align=left;spacingLeft=6;fontStyle=5;overflow=hidden;whiteSpace=wrap;html=1;" vertex="1" parent="msufzd7uYxtmhXxplaaa-10">
          <mxGeometry x="60" width="190" height="30" as="geometry">
            <mxRectangle width="190" height="30" as="alternateBounds" />
          </mxGeometry>
        </mxCell>
        <mxCell id="msufzd7uYxtmhXxplaaa-13" value="" style="shape=tableRow;horizontal=0;startSize=0;swimlaneHead=0;swimlaneBody=0;fillColor=none;collapsible=0;dropTarget=0;points=[[0,0.5],[1,0.5]];portConstraint=eastwest;top=0;left=0;right=0;bottom=0;" vertex="1" parent="1q5uws78fJFRyL0Sj0jH-81">
          <mxGeometry y="60" width="250" height="30" as="geometry" />
        </mxCell>
        <mxCell id="msufzd7uYxtmhXxplaaa-14" value="FK" style="shape=partialRectangle;connectable=0;fillColor=none;top=0;left=0;bottom=0;right=0;editable=1;overflow=hidden;" vertex="1" parent="msufzd7uYxtmhXxplaaa-13">
          <mxGeometry width="60" height="30" as="geometry">
            <mxRectangle width="60" height="30" as="alternateBounds" />
          </mxGeometry>
        </mxCell>
        <mxCell id="msufzd7uYxtmhXxplaaa-15" value="AppointmentId int NOT NULL" style="shape=partialRectangle;connectable=0;fillColor=none;top=0;left=0;bottom=0;right=0;align=left;spacingLeft=6;overflow=hidden;" vertex="1" parent="msufzd7uYxtmhXxplaaa-13">
          <mxGeometry x="60" width="190" height="30" as="geometry">
            <mxRectangle width="190" height="30" as="alternateBounds" />
          </mxGeometry>
        </mxCell>
        <mxCell id="msufzd7uYxtmhXxplaaa-16" value="" style="shape=tableRow;horizontal=0;startSize=0;swimlaneHead=0;swimlaneBody=0;fillColor=none;collapsible=0;dropTarget=0;points=[[0,0.5],[1,0.5]];portConstraint=eastwest;top=0;left=0;right=0;bottom=0;" vertex="1" parent="1q5uws78fJFRyL0Sj0jH-81">
          <mxGeometry y="90" width="250" height="30" as="geometry" />
        </mxCell>
        <mxCell id="msufzd7uYxtmhXxplaaa-17" value="FK" style="shape=partialRectangle;connectable=0;fillColor=none;top=0;left=0;bottom=0;right=0;editable=1;overflow=hidden;" vertex="1" parent="msufzd7uYxtmhXxplaaa-16">
          <mxGeometry width="60" height="30" as="geometry">
            <mxRectangle width="60" height="30" as="alternateBounds" />
          </mxGeometry>
        </mxCell>
        <mxCell id="msufzd7uYxtmhXxplaaa-18" value="TaskId int NOT NULL" style="shape=partialRectangle;connectable=0;fillColor=none;top=0;left=0;bottom=0;right=0;align=left;spacingLeft=6;overflow=hidden;" vertex="1" parent="msufzd7uYxtmhXxplaaa-16">
          <mxGeometry x="60" width="190" height="30" as="geometry">
            <mxRectangle width="190" height="30" as="alternateBounds" />
          </mxGeometry>
        </mxCell>
        <mxCell id="1q5uws78fJFRyL0Sj0jH-88" value="" style="shape=tableRow;horizontal=0;startSize=0;swimlaneHead=0;swimlaneBody=0;fillColor=none;collapsible=0;dropTarget=0;points=[[0,0.5],[1,0.5]];portConstraint=eastwest;top=0;left=0;right=0;bottom=0;html=1;" parent="1q5uws78fJFRyL0Sj0jH-81" vertex="1">
          <mxGeometry y="120" width="250" height="30" as="geometry" />
        </mxCell>
        <mxCell id="1q5uws78fJFRyL0Sj0jH-89" value="" style="shape=partialRectangle;connectable=0;fillColor=none;top=0;left=0;bottom=0;right=0;editable=1;overflow=hidden;html=1;whiteSpace=wrap;" parent="1q5uws78fJFRyL0Sj0jH-88" vertex="1">
          <mxGeometry width="60" height="30" as="geometry">
            <mxRectangle width="60" height="30" as="alternateBounds" />
          </mxGeometry>
        </mxCell>
        <mxCell id="1q5uws78fJFRyL0Sj0jH-90" value="AdditionalInfo varchar(100)" style="shape=partialRectangle;connectable=0;fillColor=none;top=0;left=0;bottom=0;right=0;align=left;spacingLeft=6;overflow=hidden;html=1;whiteSpace=wrap;" parent="1q5uws78fJFRyL0Sj0jH-88" vertex="1">
          <mxGeometry x="60" width="190" height="30" as="geometry">
            <mxRectangle width="190" height="30" as="alternateBounds" />
          </mxGeometry>
        </mxCell>
        <mxCell id="1q5uws78fJFRyL0Sj0jH-91" value="" style="shape=tableRow;horizontal=0;startSize=0;swimlaneHead=0;swimlaneBody=0;fillColor=none;collapsible=0;dropTarget=0;points=[[0,0.5],[1,0.5]];portConstraint=eastwest;top=0;left=0;right=0;bottom=0;html=1;" parent="1q5uws78fJFRyL0Sj0jH-81" vertex="1">
          <mxGeometry y="150" width="250" height="30" as="geometry" />
        </mxCell>
        <mxCell id="1q5uws78fJFRyL0Sj0jH-92" value="" style="shape=partialRectangle;connectable=0;fillColor=none;top=0;left=0;bottom=0;right=0;editable=1;overflow=hidden;html=1;whiteSpace=wrap;" parent="1q5uws78fJFRyL0Sj0jH-91" vertex="1">
          <mxGeometry width="60" height="30" as="geometry">
            <mxRectangle width="60" height="30" as="alternateBounds" />
          </mxGeometry>
        </mxCell>
        <mxCell id="1q5uws78fJFRyL0Sj0jH-93" value="IsDone boolean" style="shape=partialRectangle;connectable=0;fillColor=none;top=0;left=0;bottom=0;right=0;align=left;spacingLeft=6;overflow=hidden;html=1;whiteSpace=wrap;" parent="1q5uws78fJFRyL0Sj0jH-91" vertex="1">
          <mxGeometry x="60" width="190" height="30" as="geometry">
            <mxRectangle width="190" height="30" as="alternateBounds" />
          </mxGeometry>
        </mxCell>
        <mxCell id="1q5uws78fJFRyL0Sj0jH-100" value="Tasks" style="shape=table;startSize=30;container=1;collapsible=1;childLayout=tableLayout;fixedRows=1;rowLines=0;fontStyle=1;align=center;resizeLast=1;html=1;" parent="1" vertex="1">
          <mxGeometry x="280" y="980" width="250" height="90" as="geometry" />
        </mxCell>
        <mxCell id="1q5uws78fJFRyL0Sj0jH-101" value="" style="shape=tableRow;horizontal=0;startSize=0;swimlaneHead=0;swimlaneBody=0;fillColor=none;collapsible=0;dropTarget=0;points=[[0,0.5],[1,0.5]];portConstraint=eastwest;top=0;left=0;right=0;bottom=1;" parent="1q5uws78fJFRyL0Sj0jH-100" vertex="1">
          <mxGeometry y="30" width="250" height="30" as="geometry" />
        </mxCell>
        <mxCell id="1q5uws78fJFRyL0Sj0jH-102" value="PK" style="shape=partialRectangle;connectable=0;fillColor=none;top=0;left=0;bottom=0;right=0;fontStyle=1;overflow=hidden;whiteSpace=wrap;html=1;" parent="1q5uws78fJFRyL0Sj0jH-101" vertex="1">
          <mxGeometry width="30" height="30" as="geometry">
            <mxRectangle width="30" height="30" as="alternateBounds" />
          </mxGeometry>
        </mxCell>
        <mxCell id="1q5uws78fJFRyL0Sj0jH-103" value="Id int NOT NULL" style="shape=partialRectangle;connectable=0;fillColor=none;top=0;left=0;bottom=0;right=0;align=left;spacingLeft=6;fontStyle=5;overflow=hidden;whiteSpace=wrap;html=1;" parent="1q5uws78fJFRyL0Sj0jH-101" vertex="1">
          <mxGeometry x="30" width="220" height="30" as="geometry">
            <mxRectangle width="220" height="30" as="alternateBounds" />
          </mxGeometry>
        </mxCell>
        <mxCell id="1q5uws78fJFRyL0Sj0jH-104" value="" style="shape=tableRow;horizontal=0;startSize=0;swimlaneHead=0;swimlaneBody=0;fillColor=none;collapsible=0;dropTarget=0;points=[[0,0.5],[1,0.5]];portConstraint=eastwest;top=0;left=0;right=0;bottom=0;" parent="1q5uws78fJFRyL0Sj0jH-100" vertex="1">
          <mxGeometry y="60" width="250" height="30" as="geometry" />
        </mxCell>
        <mxCell id="1q5uws78fJFRyL0Sj0jH-105" value="" style="shape=partialRectangle;connectable=0;fillColor=none;top=0;left=0;bottom=0;right=0;editable=1;overflow=hidden;whiteSpace=wrap;html=1;" parent="1q5uws78fJFRyL0Sj0jH-104" vertex="1">
          <mxGeometry width="30" height="30" as="geometry">
            <mxRectangle width="30" height="30" as="alternateBounds" />
          </mxGeometry>
        </mxCell>
        <mxCell id="1q5uws78fJFRyL0Sj0jH-106" value="Name varchar(50)&amp;nbsp; NOT NULL" style="shape=partialRectangle;connectable=0;fillColor=none;top=0;left=0;bottom=0;right=0;align=left;spacingLeft=6;overflow=hidden;whiteSpace=wrap;html=1;" parent="1q5uws78fJFRyL0Sj0jH-104" vertex="1">
          <mxGeometry x="30" width="220" height="30" as="geometry">
            <mxRectangle width="220" height="30" as="alternateBounds" />
          </mxGeometry>
        </mxCell>
        <mxCell id="1q5uws78fJFRyL0Sj0jH-117" value="Regular Tasks" style="shape=table;startSize=30;container=1;collapsible=1;childLayout=tableLayout;fixedRows=1;rowLines=0;fontStyle=1;align=center;resizeLast=1;html=1;whiteSpace=wrap;" parent="1" vertex="1">
          <mxGeometry x="490" y="740" width="250" height="150" as="geometry" />
        </mxCell>
        <mxCell id="msufzd7uYxtmhXxplaaa-7" value="" style="shape=tableRow;horizontal=0;startSize=0;swimlaneHead=0;swimlaneBody=0;fillColor=none;collapsible=0;dropTarget=0;points=[[0,0.5],[1,0.5]];portConstraint=eastwest;top=0;left=0;right=0;bottom=1;" vertex="1" parent="1q5uws78fJFRyL0Sj0jH-117">
          <mxGeometry y="30" width="250" height="30" as="geometry" />
        </mxCell>
        <mxCell id="msufzd7uYxtmhXxplaaa-8" value="PK" style="shape=partialRectangle;connectable=0;fillColor=none;top=0;left=0;bottom=0;right=0;fontStyle=1;overflow=hidden;whiteSpace=wrap;html=1;" vertex="1" parent="msufzd7uYxtmhXxplaaa-7">
          <mxGeometry width="60" height="30" as="geometry">
            <mxRectangle width="60" height="30" as="alternateBounds" />
          </mxGeometry>
        </mxCell>
        <mxCell id="msufzd7uYxtmhXxplaaa-9" value="Id int NOT NULL" style="shape=partialRectangle;connectable=0;fillColor=none;top=0;left=0;bottom=0;right=0;align=left;spacingLeft=6;fontStyle=5;overflow=hidden;whiteSpace=wrap;html=1;" vertex="1" parent="msufzd7uYxtmhXxplaaa-7">
          <mxGeometry x="60" width="190" height="30" as="geometry">
            <mxRectangle width="190" height="30" as="alternateBounds" />
          </mxGeometry>
        </mxCell>
        <mxCell id="msufzd7uYxtmhXxplaaa-1" value="" style="shape=tableRow;horizontal=0;startSize=0;swimlaneHead=0;swimlaneBody=0;fillColor=none;collapsible=0;dropTarget=0;points=[[0,0.5],[1,0.5]];portConstraint=eastwest;top=0;left=0;right=0;bottom=0;" vertex="1" parent="1q5uws78fJFRyL0Sj0jH-117">
          <mxGeometry y="60" width="250" height="30" as="geometry" />
        </mxCell>
        <mxCell id="msufzd7uYxtmhXxplaaa-2" value="FK" style="shape=partialRectangle;connectable=0;fillColor=none;top=0;left=0;bottom=0;right=0;editable=1;overflow=hidden;" vertex="1" parent="msufzd7uYxtmhXxplaaa-1">
          <mxGeometry width="60" height="30" as="geometry">
            <mxRectangle width="60" height="30" as="alternateBounds" />
          </mxGeometry>
        </mxCell>
        <mxCell id="msufzd7uYxtmhXxplaaa-3" value="TaskId int NOT NULL" style="shape=partialRectangle;connectable=0;fillColor=none;top=0;left=0;bottom=0;right=0;align=left;spacingLeft=6;overflow=hidden;" vertex="1" parent="msufzd7uYxtmhXxplaaa-1">
          <mxGeometry x="60" width="190" height="30" as="geometry">
            <mxRectangle width="190" height="30" as="alternateBounds" />
          </mxGeometry>
        </mxCell>
        <mxCell id="msufzd7uYxtmhXxplaaa-4" value="" style="shape=tableRow;horizontal=0;startSize=0;swimlaneHead=0;swimlaneBody=0;fillColor=none;collapsible=0;dropTarget=0;points=[[0,0.5],[1,0.5]];portConstraint=eastwest;top=0;left=0;right=0;bottom=0;" vertex="1" parent="1q5uws78fJFRyL0Sj0jH-117">
          <mxGeometry y="90" width="250" height="30" as="geometry" />
        </mxCell>
        <mxCell id="msufzd7uYxtmhXxplaaa-5" value="FK" style="shape=partialRectangle;connectable=0;fillColor=none;top=0;left=0;bottom=0;right=0;editable=1;overflow=hidden;" vertex="1" parent="msufzd7uYxtmhXxplaaa-4">
          <mxGeometry width="60" height="30" as="geometry">
            <mxRectangle width="60" height="30" as="alternateBounds" />
          </mxGeometry>
        </mxCell>
        <mxCell id="msufzd7uYxtmhXxplaaa-6" value="CustomerId int NOT NULL" style="shape=partialRectangle;connectable=0;fillColor=none;top=0;left=0;bottom=0;right=0;align=left;spacingLeft=6;overflow=hidden;" vertex="1" parent="msufzd7uYxtmhXxplaaa-4">
          <mxGeometry x="60" width="190" height="30" as="geometry">
            <mxRectangle width="190" height="30" as="alternateBounds" />
          </mxGeometry>
        </mxCell>
        <mxCell id="1q5uws78fJFRyL0Sj0jH-124" value="" style="shape=tableRow;horizontal=0;startSize=0;swimlaneHead=0;swimlaneBody=0;fillColor=none;collapsible=0;dropTarget=0;points=[[0,0.5],[1,0.5]];portConstraint=eastwest;top=0;left=0;right=0;bottom=0;html=1;" parent="1q5uws78fJFRyL0Sj0jH-117" vertex="1">
          <mxGeometry y="120" width="250" height="30" as="geometry" />
        </mxCell>
        <mxCell id="1q5uws78fJFRyL0Sj0jH-125" value="" style="shape=partialRectangle;connectable=0;fillColor=none;top=0;left=0;bottom=0;right=0;editable=1;overflow=hidden;html=1;whiteSpace=wrap;" parent="1q5uws78fJFRyL0Sj0jH-124" vertex="1">
          <mxGeometry width="60" height="30" as="geometry">
            <mxRectangle width="60" height="30" as="alternateBounds" />
          </mxGeometry>
        </mxCell>
        <mxCell id="1q5uws78fJFRyL0Sj0jH-126" value="AdditionalInfo varchar(100)" style="shape=partialRectangle;connectable=0;fillColor=none;top=0;left=0;bottom=0;right=0;align=left;spacingLeft=6;overflow=hidden;html=1;whiteSpace=wrap;" parent="1q5uws78fJFRyL0Sj0jH-124" vertex="1">
          <mxGeometry x="60" width="190" height="30" as="geometry">
            <mxRectangle width="190" height="30" as="alternateBounds" />
          </mxGeometry>
        </mxCell>
        <mxCell id="1q5uws78fJFRyL0Sj0jH-134" value="" style="edgeStyle=entityRelationEdgeStyle;fontSize=12;html=1;endArrow=ERzeroToMany;endFill=1;entryX=1;entryY=0.5;entryDx=0;entryDy=0;exitX=0;exitY=0.5;exitDx=0;exitDy=0;curved=1;startArrow=ERmandOne;startFill=0;" parent="1" source="C-vyLk0tnHw3VtMMgP7b-24" target="1q5uws78fJFRyL0Sj0jH-43" edge="1">
          <mxGeometry width="100" height="100" relative="1" as="geometry">
            <mxPoint x="440" y="470" as="sourcePoint" />
            <mxPoint x="355" y="600" as="targetPoint" />
          </mxGeometry>
        </mxCell>
        <mxCell id="1q5uws78fJFRyL0Sj0jH-135" value="" style="fontSize=12;html=1;endArrow=ERzeroToMany;endFill=1;exitX=0.516;exitY=1.067;exitDx=0;exitDy=0;startArrow=ERmandOne;startFill=0;exitPerimeter=0;" parent="1" source="C-vyLk0tnHw3VtMMgP7b-6" edge="1">
          <mxGeometry width="100" height="100" relative="1" as="geometry">
            <mxPoint x="248" y="283.99" as="sourcePoint" />
            <mxPoint x="248" y="420" as="targetPoint" />
          </mxGeometry>
        </mxCell>
        <mxCell id="1q5uws78fJFRyL0Sj0jH-136" value="" style="fontSize=12;html=1;endArrow=ERzeroToMany;endFill=1;entryX=0.5;entryY=0;entryDx=0;entryDy=0;exitX=0.5;exitY=1;exitDx=0;exitDy=0;startArrow=ERmandOne;startFill=0;exitPerimeter=0;" parent="1" source="1q5uws78fJFRyL0Sj0jH-14" target="1q5uws78fJFRyL0Sj0jH-117" edge="1">
          <mxGeometry width="100" height="100" relative="1" as="geometry">
            <mxPoint x="614.04" y="662.01" as="sourcePoint" />
            <mxPoint x="350" y="820" as="targetPoint" />
          </mxGeometry>
        </mxCell>
        <mxCell id="1q5uws78fJFRyL0Sj0jH-137" value="" style="fontSize=12;html=1;endArrow=ERoneToMany;endFill=0;exitX=0.504;exitY=1.133;exitDx=0;exitDy=0;startArrow=ERmandOne;startFill=0;exitPerimeter=0;entryX=0.5;entryY=0;entryDx=0;entryDy=0;" parent="1" source="1q5uws78fJFRyL0Sj0jH-97" target="1q5uws78fJFRyL0Sj0jH-81" edge="1">
          <mxGeometry width="100" height="100" relative="1" as="geometry">
            <mxPoint x="230" y="640" as="sourcePoint" />
            <mxPoint x="241" y="730" as="targetPoint" />
          </mxGeometry>
        </mxCell>
        <mxCell id="1q5uws78fJFRyL0Sj0jH-138" value="" style="fontSize=12;html=1;endArrow=ERzeroToMany;endFill=0;exitX=0;exitY=0.5;exitDx=0;exitDy=0;startArrow=ERmandOne;startFill=0;edgeStyle=elbowEdgeStyle;" parent="1" source="1q5uws78fJFRyL0Sj0jH-101" target="1q5uws78fJFRyL0Sj0jH-91" edge="1">
          <mxGeometry width="100" height="100" relative="1" as="geometry">
            <mxPoint x="405.5" y="860" as="sourcePoint" />
            <mxPoint x="404.5" y="966" as="targetPoint" />
            <Array as="points">
              <mxPoint x="240" y="960" />
            </Array>
          </mxGeometry>
        </mxCell>
        <mxCell id="1q5uws78fJFRyL0Sj0jH-139" value="" style="fontSize=12;html=1;endArrow=ERzeroToMany;endFill=0;exitX=1;exitY=0.5;exitDx=0;exitDy=0;startArrow=ERmandOne;startFill=0;entryX=0.48;entryY=1;entryDx=0;entryDy=0;entryPerimeter=0;edgeStyle=orthogonalEdgeStyle;" parent="1" source="1q5uws78fJFRyL0Sj0jH-101" target="1q5uws78fJFRyL0Sj0jH-124" edge="1">
          <mxGeometry width="100" height="100" relative="1" as="geometry">
            <mxPoint x="666" y="993" as="sourcePoint" />
            <mxPoint x="550" y="910" as="targetPoint" />
          </mxGeometry>
        </mxCell>
      </root>
    </mxGraphModel>
  </diagram>
  <diagram id="XSEKhnR28wv-ENf3eUAY" name="Page-2">
    <mxGraphModel dx="1434" dy="1922" grid="1" gridSize="10" guides="1" tooltips="1" connect="1" arrows="1" fold="1" page="1" pageScale="1" pageWidth="850" pageHeight="1100" math="0" shadow="0">
      <root>
        <mxCell id="0" />
        <mxCell id="1" parent="0" />
        <mxCell id="pKfK1AYLEHW8SgURi5JP-1" value="Request" style="rounded=0;whiteSpace=wrap;html=1;" parent="1" vertex="1">
          <mxGeometry x="120" y="-90" width="200" height="60" as="geometry" />
        </mxCell>
        <mxCell id="pKfK1AYLEHW8SgURi5JP-2" value="Handle" style="rounded=0;whiteSpace=wrap;html=1;" parent="1" vertex="1">
          <mxGeometry x="320" y="-90" width="200" height="60" as="geometry" />
        </mxCell>
        <mxCell id="pKfK1AYLEHW8SgURi5JP-3" value="Response" style="rounded=0;whiteSpace=wrap;html=1;" parent="1" vertex="1">
          <mxGeometry x="520" y="-90" width="200" height="60" as="geometry" />
        </mxCell>
        <mxCell id="pKfK1AYLEHW8SgURi5JP-4" value="Method" style="rounded=0;whiteSpace=wrap;html=1;" parent="1" vertex="1">
          <mxGeometry x="120" y="-30" width="100" height="60" as="geometry" />
        </mxCell>
        <mxCell id="pKfK1AYLEHW8SgURi5JP-5" value="Parameter" style="rounded=0;whiteSpace=wrap;html=1;" parent="1" vertex="1">
          <mxGeometry x="220" y="-30" width="100" height="60" as="geometry" />
        </mxCell>
        <mxCell id="pKfK1AYLEHW8SgURi5JP-6" value="GET" style="rounded=0;whiteSpace=wrap;html=1;" parent="1" vertex="1">
          <mxGeometry x="120" y="30" width="100" height="60" as="geometry" />
        </mxCell>
        <mxCell id="pKfK1AYLEHW8SgURi5JP-7" value="Login" style="rounded=0;whiteSpace=wrap;html=1;" parent="1" vertex="1">
          <mxGeometry x="220" y="30" width="100" height="60" as="geometry" />
        </mxCell>
        <mxCell id="pKfK1AYLEHW8SgURi5JP-8" value="POST" style="rounded=0;whiteSpace=wrap;html=1;" parent="1" vertex="1">
          <mxGeometry x="120" y="90" width="100" height="60" as="geometry" />
        </mxCell>
        <mxCell id="pKfK1AYLEHW8SgURi5JP-9" value="Login" style="rounded=0;whiteSpace=wrap;html=1;" parent="1" vertex="1">
          <mxGeometry x="220" y="90" width="100" height="60" as="geometry" />
        </mxCell>
        <mxCell id="pKfK1AYLEHW8SgURi5JP-10" value="GET" style="rounded=0;whiteSpace=wrap;html=1;" parent="1" vertex="1">
          <mxGeometry x="120" y="450" width="100" height="60" as="geometry" />
        </mxCell>
        <mxCell id="pKfK1AYLEHW8SgURi5JP-11" value="Bezoek-Detail" style="rounded=0;whiteSpace=wrap;html=1;" parent="1" vertex="1">
          <mxGeometry x="220" y="450" width="100" height="60" as="geometry" />
        </mxCell>
        <mxCell id="pKfK1AYLEHW8SgURi5JP-12" value="Bezoek-Detail" style="rounded=0;whiteSpace=wrap;html=1;" parent="1" vertex="1">
          <mxGeometry x="220" y="510" width="100" height="60" as="geometry" />
        </mxCell>
        <mxCell id="pKfK1AYLEHW8SgURi5JP-13" value="POST&amp;nbsp;" style="rounded=0;whiteSpace=wrap;html=1;" parent="1" vertex="1">
          <mxGeometry x="120" y="510" width="100" height="60" as="geometry" />
        </mxCell>
        <mxCell id="pKfK1AYLEHW8SgURi5JP-14" value="Process" style="rounded=0;whiteSpace=wrap;html=1;" parent="1" vertex="1">
          <mxGeometry x="320" y="-30" width="200" height="60" as="geometry" />
        </mxCell>
        <mxCell id="pKfK1AYLEHW8SgURi5JP-15" value="Bezoek-Detail" style="rounded=0;whiteSpace=wrap;html=1;" parent="1" vertex="1">
          <mxGeometry x="520" y="450" width="200" height="60" as="geometry" />
        </mxCell>
        <mxCell id="pKfK1AYLEHW8SgURi5JP-16" value="Page" style="rounded=0;whiteSpace=wrap;html=1;" parent="1" vertex="1">
          <mxGeometry x="520" y="-30" width="200" height="60" as="geometry" />
        </mxCell>
        <mxCell id="pKfK1AYLEHW8SgURi5JP-17" value="" style="rounded=0;whiteSpace=wrap;html=1;" parent="1" vertex="1">
          <mxGeometry x="320" y="30" width="200" height="60" as="geometry" />
        </mxCell>
        <mxCell id="pKfK1AYLEHW8SgURi5JP-18" value="Bezoek-Overzicht" style="rounded=0;whiteSpace=wrap;html=1;" parent="1" vertex="1">
          <mxGeometry x="520" y="90" width="200" height="60" as="geometry" />
        </mxCell>
        <mxCell id="pKfK1AYLEHW8SgURi5JP-19" value="Login" style="rounded=0;whiteSpace=wrap;html=1;" parent="1" vertex="1">
          <mxGeometry x="520" y="30" width="200" height="60" as="geometry" />
        </mxCell>
        <mxCell id="pKfK1AYLEHW8SgURi5JP-20" value="" style="rounded=0;whiteSpace=wrap;html=1;" parent="1" vertex="1">
          <mxGeometry x="320" y="450" width="200" height="60" as="geometry" />
        </mxCell>
        <mxCell id="pKfK1AYLEHW8SgURi5JP-22" value="validate login" style="rounded=0;whiteSpace=wrap;html=1;" parent="1" vertex="1">
          <mxGeometry x="320" y="90" width="100" height="60" as="geometry" />
        </mxCell>
        <mxCell id="pKfK1AYLEHW8SgURi5JP-23" value="[valid] page = Bezoek-Overview or [invalid] -no-action-" style="rounded=0;whiteSpace=wrap;html=1;" parent="1" vertex="1">
          <mxGeometry x="420" y="90" width="100" height="60" as="geometry" />
        </mxCell>
        <mxCell id="pKfK1AYLEHW8SgURi5JP-24" value="validate (updated) bezoek" style="rounded=0;whiteSpace=wrap;html=1;" parent="1" vertex="1">
          <mxGeometry x="320" y="510" width="100" height="60" as="geometry" />
        </mxCell>
        <mxCell id="pKfK1AYLEHW8SgURi5JP-25" value="[valid] page = Bezoek-Overzicht or [invalid] -no-action-" style="rounded=0;whiteSpace=wrap;html=1;" parent="1" vertex="1">
          <mxGeometry x="420" y="510" width="100" height="60" as="geometry" />
        </mxCell>
        <mxCell id="pKfK1AYLEHW8SgURi5JP-26" value="GET" style="rounded=0;whiteSpace=wrap;html=1;" parent="1" vertex="1">
          <mxGeometry x="120" y="570" width="100" height="60" as="geometry" />
        </mxCell>
        <mxCell id="pKfK1AYLEHW8SgURi5JP-27" value="Klant-Overzicht" style="rounded=0;whiteSpace=wrap;html=1;" parent="1" vertex="1">
          <mxGeometry x="220" y="570" width="100" height="60" as="geometry" />
        </mxCell>
        <mxCell id="pKfK1AYLEHW8SgURi5JP-28" value="" style="rounded=0;whiteSpace=wrap;html=1;" parent="1" vertex="1">
          <mxGeometry x="320" y="570" width="200" height="60" as="geometry" />
        </mxCell>
        <mxCell id="pKfK1AYLEHW8SgURi5JP-29" value="Klant-Overzicht" style="rounded=0;whiteSpace=wrap;html=1;" parent="1" vertex="1">
          <mxGeometry x="520" y="570" width="200" height="60" as="geometry" />
        </mxCell>
        <mxCell id="pKfK1AYLEHW8SgURi5JP-30" value="GET" style="rounded=0;whiteSpace=wrap;html=1;" parent="1" vertex="1">
          <mxGeometry x="120" y="630" width="100" height="60" as="geometry" />
        </mxCell>
        <mxCell id="pKfK1AYLEHW8SgURi5JP-31" value="Klant-Toevoegen" style="rounded=0;whiteSpace=wrap;html=1;" parent="1" vertex="1">
          <mxGeometry x="220" y="630" width="100" height="60" as="geometry" />
        </mxCell>
        <mxCell id="pKfK1AYLEHW8SgURi5JP-32" value="validate (nieuwe) klant" style="rounded=0;whiteSpace=wrap;html=1;" parent="1" vertex="1">
          <mxGeometry x="320" y="690" width="100" height="60" as="geometry" />
        </mxCell>
        <mxCell id="pKfK1AYLEHW8SgURi5JP-33" value="[valid] page = Klant-Overzicht or [invalid] -no-action-" style="rounded=0;whiteSpace=wrap;html=1;" parent="1" vertex="1">
          <mxGeometry x="420" y="690" width="100" height="60" as="geometry" />
        </mxCell>
        <mxCell id="pKfK1AYLEHW8SgURi5JP-34" value="GET" style="rounded=0;whiteSpace=wrap;html=1;" parent="1" vertex="1">
          <mxGeometry x="120" y="270" width="100" height="60" as="geometry" />
        </mxCell>
        <mxCell id="pKfK1AYLEHW8SgURi5JP-35" value="Bezoek-Overzicht" style="rounded=0;whiteSpace=wrap;html=1;" parent="1" vertex="1">
          <mxGeometry x="220" y="270" width="100" height="60" as="geometry" />
        </mxCell>
        <mxCell id="pKfK1AYLEHW8SgURi5JP-36" value="Bezoek-Overzicht" style="rounded=0;whiteSpace=wrap;html=1;" parent="1" vertex="1">
          <mxGeometry x="520" y="270" width="200" height="60" as="geometry" />
        </mxCell>
        <mxCell id="pKfK1AYLEHW8SgURi5JP-37" value="" style="rounded=0;whiteSpace=wrap;html=1;" parent="1" vertex="1">
          <mxGeometry x="320" y="270" width="200" height="60" as="geometry" />
        </mxCell>
        <mxCell id="pKfK1AYLEHW8SgURi5JP-39" value="" style="rounded=0;whiteSpace=wrap;html=1;" parent="1" vertex="1">
          <mxGeometry x="320" y="630" width="200" height="60" as="geometry" />
        </mxCell>
        <mxCell id="pKfK1AYLEHW8SgURi5JP-40" value="Klant-Toevoegen" style="rounded=0;whiteSpace=wrap;html=1;" parent="1" vertex="1">
          <mxGeometry x="520" y="630" width="200" height="60" as="geometry" />
        </mxCell>
        <mxCell id="pKfK1AYLEHW8SgURi5JP-41" value="POST ***" style="rounded=0;whiteSpace=wrap;html=1;" parent="1" vertex="1">
          <mxGeometry x="120" y="690" width="100" height="60" as="geometry" />
        </mxCell>
        <mxCell id="pKfK1AYLEHW8SgURi5JP-42" value="Klant-Toevoegen" style="rounded=0;whiteSpace=wrap;html=1;" parent="1" vertex="1">
          <mxGeometry x="220" y="690" width="100" height="60" as="geometry" />
        </mxCell>
        <mxCell id="pKfK1AYLEHW8SgURi5JP-43" value="Klant-Overzicht" style="rounded=0;whiteSpace=wrap;html=1;" parent="1" vertex="1">
          <mxGeometry x="520" y="690" width="200" height="60" as="geometry" />
        </mxCell>
        <mxCell id="pKfK1AYLEHW8SgURi5JP-44" value="GET" style="rounded=0;whiteSpace=wrap;html=1;" parent="1" vertex="1">
          <mxGeometry x="120" y="750" width="100" height="60" as="geometry" />
        </mxCell>
        <mxCell id="pKfK1AYLEHW8SgURi5JP-45" value="Klant-Bewerken" style="rounded=0;whiteSpace=wrap;html=1;" parent="1" vertex="1">
          <mxGeometry x="220" y="750" width="100" height="60" as="geometry" />
        </mxCell>
        <mxCell id="pKfK1AYLEHW8SgURi5JP-46" value="" style="rounded=0;whiteSpace=wrap;html=1;" parent="1" vertex="1">
          <mxGeometry x="320" y="750" width="200" height="60" as="geometry" />
        </mxCell>
        <mxCell id="pKfK1AYLEHW8SgURi5JP-47" value="Klant-Bewerken" style="rounded=0;whiteSpace=wrap;html=1;" parent="1" vertex="1">
          <mxGeometry x="520" y="750" width="200" height="60" as="geometry" />
        </mxCell>
        <mxCell id="pKfK1AYLEHW8SgURi5JP-48" value="POST ***" style="rounded=0;whiteSpace=wrap;html=1;" parent="1" vertex="1">
          <mxGeometry x="120" y="810" width="100" height="60" as="geometry" />
        </mxCell>
        <mxCell id="pKfK1AYLEHW8SgURi5JP-49" value="Klant-Bewerken" style="rounded=0;whiteSpace=wrap;html=1;" parent="1" vertex="1">
          <mxGeometry x="220" y="810" width="100" height="60" as="geometry" />
        </mxCell>
        <mxCell id="pKfK1AYLEHW8SgURi5JP-50" value="validate (updated) klant" style="rounded=0;whiteSpace=wrap;html=1;" parent="1" vertex="1">
          <mxGeometry x="320" y="810" width="100" height="60" as="geometry" />
        </mxCell>
        <mxCell id="pKfK1AYLEHW8SgURi5JP-51" value="[valid] page = Klant-Detail or [invalid] -no-action-" style="rounded=0;whiteSpace=wrap;html=1;" parent="1" vertex="1">
          <mxGeometry x="420" y="810" width="100" height="60" as="geometry" />
        </mxCell>
        <mxCell id="pKfK1AYLEHW8SgURi5JP-52" value="Klant-Overzicht" style="rounded=0;whiteSpace=wrap;html=1;" parent="1" vertex="1">
          <mxGeometry x="520" y="810" width="200" height="60" as="geometry" />
        </mxCell>
        <mxCell id="pKfK1AYLEHW8SgURi5JP-53" value="GET" style="rounded=0;whiteSpace=wrap;html=1;" parent="1" vertex="1">
          <mxGeometry x="120" y="330" width="100" height="60" as="geometry" />
        </mxCell>
        <mxCell id="pKfK1AYLEHW8SgURi5JP-54" value="Bezoek-Toevoegen" style="rounded=0;whiteSpace=wrap;html=1;" parent="1" vertex="1">
          <mxGeometry x="220" y="330" width="100" height="60" as="geometry" />
        </mxCell>
        <mxCell id="pKfK1AYLEHW8SgURi5JP-55" value="" style="rounded=0;whiteSpace=wrap;html=1;" parent="1" vertex="1">
          <mxGeometry x="320" y="330" width="200" height="60" as="geometry" />
        </mxCell>
        <mxCell id="pKfK1AYLEHW8SgURi5JP-56" value="Bezoek-Toevoegen" style="rounded=0;whiteSpace=wrap;html=1;" parent="1" vertex="1">
          <mxGeometry x="520" y="330" width="200" height="60" as="geometry" />
        </mxCell>
        <mxCell id="pKfK1AYLEHW8SgURi5JP-57" value="POST" style="rounded=0;whiteSpace=wrap;html=1;" parent="1" vertex="1">
          <mxGeometry x="120" y="390" width="100" height="60" as="geometry" />
        </mxCell>
        <mxCell id="pKfK1AYLEHW8SgURi5JP-58" value="Bezoek-Toevoegen" style="rounded=0;whiteSpace=wrap;html=1;" parent="1" vertex="1">
          <mxGeometry x="220" y="390" width="100" height="60" as="geometry" />
        </mxCell>
        <mxCell id="pKfK1AYLEHW8SgURi5JP-59" value="validate (nieuwe) bezoek" style="rounded=0;whiteSpace=wrap;html=1;" parent="1" vertex="1">
          <mxGeometry x="320" y="390" width="100" height="60" as="geometry" />
        </mxCell>
        <mxCell id="pKfK1AYLEHW8SgURi5JP-60" value="[valid] page = Bezoek-Overzicht or [invalid] -no-action-" style="rounded=0;whiteSpace=wrap;html=1;" parent="1" vertex="1">
          <mxGeometry x="420" y="390" width="100" height="60" as="geometry" />
        </mxCell>
        <mxCell id="pKfK1AYLEHW8SgURi5JP-61" value="Bezoek-Overzicht" style="rounded=0;whiteSpace=wrap;html=1;" parent="1" vertex="1">
          <mxGeometry x="520" y="390" width="200" height="60" as="geometry" />
        </mxCell>
        <mxCell id="pKfK1AYLEHW8SgURi5JP-62" value="Bezoek-Overzicht" style="rounded=0;whiteSpace=wrap;html=1;" parent="1" vertex="1">
          <mxGeometry x="520" y="510" width="200" height="60" as="geometry" />
        </mxCell>
        <mxCell id="pKfK1AYLEHW8SgURi5JP-63" value="GET" style="rounded=0;whiteSpace=wrap;html=1;" parent="1" vertex="1">
          <mxGeometry x="120" y="870" width="100" height="60" as="geometry" />
        </mxCell>
        <mxCell id="pKfK1AYLEHW8SgURi5JP-64" value="GET" style="rounded=0;whiteSpace=wrap;html=1;" parent="1" vertex="1">
          <mxGeometry x="120" y="930" width="100" height="60" as="geometry" />
        </mxCell>
        <mxCell id="pKfK1AYLEHW8SgURi5JP-65" value="Taak-Overzicht" style="rounded=0;whiteSpace=wrap;html=1;" parent="1" vertex="1">
          <mxGeometry x="220" y="870" width="100" height="60" as="geometry" />
        </mxCell>
        <mxCell id="pKfK1AYLEHW8SgURi5JP-66" value="Taak-Toevoegen" style="rounded=0;whiteSpace=wrap;html=1;" parent="1" vertex="1">
          <mxGeometry x="220" y="930" width="100" height="60" as="geometry" />
        </mxCell>
        <mxCell id="pKfK1AYLEHW8SgURi5JP-67" value="" style="rounded=0;whiteSpace=wrap;html=1;" parent="1" vertex="1">
          <mxGeometry x="320" y="870" width="200" height="60" as="geometry" />
        </mxCell>
        <mxCell id="pKfK1AYLEHW8SgURi5JP-68" value="Taak-Overzicht" style="rounded=0;whiteSpace=wrap;html=1;" parent="1" vertex="1">
          <mxGeometry x="520" y="870" width="200" height="60" as="geometry" />
        </mxCell>
        <mxCell id="pKfK1AYLEHW8SgURi5JP-69" value="" style="rounded=0;whiteSpace=wrap;html=1;" parent="1" vertex="1">
          <mxGeometry x="320" y="930" width="200" height="60" as="geometry" />
        </mxCell>
        <mxCell id="pKfK1AYLEHW8SgURi5JP-70" value="Taak-Toevoegen" style="rounded=0;whiteSpace=wrap;html=1;" parent="1" vertex="1">
          <mxGeometry x="520" y="930" width="200" height="60" as="geometry" />
        </mxCell>
        <mxCell id="pKfK1AYLEHW8SgURi5JP-71" value="POST&amp;nbsp;" style="rounded=0;whiteSpace=wrap;html=1;" parent="1" vertex="1">
          <mxGeometry x="120" y="990" width="100" height="60" as="geometry" />
        </mxCell>
        <mxCell id="pKfK1AYLEHW8SgURi5JP-72" value="Taak-Toevoegen" style="rounded=0;whiteSpace=wrap;html=1;" parent="1" vertex="1">
          <mxGeometry x="220" y="990" width="100" height="60" as="geometry" />
        </mxCell>
        <mxCell id="pKfK1AYLEHW8SgURi5JP-73" value="validate (nieuwe) taak" style="rounded=0;whiteSpace=wrap;html=1;" parent="1" vertex="1">
          <mxGeometry x="320" y="990" width="100" height="60" as="geometry" />
        </mxCell>
        <mxCell id="pKfK1AYLEHW8SgURi5JP-74" value="[valid] page = Taak-Overzicht or [invalid] -no-action-" style="rounded=0;whiteSpace=wrap;html=1;" parent="1" vertex="1">
          <mxGeometry x="420" y="990" width="100" height="60" as="geometry" />
        </mxCell>
        <mxCell id="pKfK1AYLEHW8SgURi5JP-75" value="Taak-Overzicht" style="rounded=0;whiteSpace=wrap;html=1;" parent="1" vertex="1">
          <mxGeometry x="520" y="990" width="200" height="60" as="geometry" />
        </mxCell>
        <mxCell id="pKfK1AYLEHW8SgURi5JP-76" value="GET" style="rounded=0;whiteSpace=wrap;html=1;" parent="1" vertex="1">
          <mxGeometry x="120" y="1050" width="100" height="60" as="geometry" />
        </mxCell>
        <mxCell id="pKfK1AYLEHW8SgURi5JP-77" value="Taak-Bewerken" style="rounded=0;whiteSpace=wrap;html=1;" parent="1" vertex="1">
          <mxGeometry x="220" y="1050" width="100" height="60" as="geometry" />
        </mxCell>
        <mxCell id="pKfK1AYLEHW8SgURi5JP-78" value="" style="rounded=0;whiteSpace=wrap;html=1;" parent="1" vertex="1">
          <mxGeometry x="320" y="1050" width="200" height="60" as="geometry" />
        </mxCell>
        <mxCell id="pKfK1AYLEHW8SgURi5JP-79" value="Taak-Bewerken" style="rounded=0;whiteSpace=wrap;html=1;" parent="1" vertex="1">
          <mxGeometry x="520" y="1050" width="200" height="60" as="geometry" />
        </mxCell>
        <mxCell id="pKfK1AYLEHW8SgURi5JP-80" value="POST&amp;nbsp;" style="rounded=0;whiteSpace=wrap;html=1;" parent="1" vertex="1">
          <mxGeometry x="120" y="1110" width="100" height="60" as="geometry" />
        </mxCell>
        <mxCell id="pKfK1AYLEHW8SgURi5JP-81" value="Taak-Bewerken" style="rounded=0;whiteSpace=wrap;html=1;" parent="1" vertex="1">
          <mxGeometry x="220" y="1110" width="100" height="60" as="geometry" />
        </mxCell>
        <mxCell id="pKfK1AYLEHW8SgURi5JP-82" value="validate (updated) taak" style="rounded=0;whiteSpace=wrap;html=1;" parent="1" vertex="1">
          <mxGeometry x="320" y="1110" width="100" height="60" as="geometry" />
        </mxCell>
        <mxCell id="pKfK1AYLEHW8SgURi5JP-83" value="[valid] page = Taak-Overzicht or [invalid] -no-action-" style="rounded=0;whiteSpace=wrap;html=1;" parent="1" vertex="1">
          <mxGeometry x="420" y="1110" width="100" height="60" as="geometry" />
        </mxCell>
        <mxCell id="pKfK1AYLEHW8SgURi5JP-84" value="Taak-Overzicht" style="rounded=0;whiteSpace=wrap;html=1;" parent="1" vertex="1">
          <mxGeometry x="520" y="1110" width="200" height="60" as="geometry" />
        </mxCell>
        <mxCell id="6m_WviROTDz9loQ-pEA8-1" value="GET" style="rounded=0;whiteSpace=wrap;html=1;" vertex="1" parent="1">
          <mxGeometry x="120" y="150" width="100" height="60" as="geometry" />
        </mxCell>
        <mxCell id="6m_WviROTDz9loQ-pEA8-2" value="Register" style="rounded=0;whiteSpace=wrap;html=1;" vertex="1" parent="1">
          <mxGeometry x="220" y="150" width="100" height="60" as="geometry" />
        </mxCell>
        <mxCell id="6m_WviROTDz9loQ-pEA8-3" value="" style="rounded=0;whiteSpace=wrap;html=1;" vertex="1" parent="1">
          <mxGeometry x="320" y="150" width="200" height="60" as="geometry" />
        </mxCell>
        <mxCell id="6m_WviROTDz9loQ-pEA8-4" value="Register" style="rounded=0;whiteSpace=wrap;html=1;" vertex="1" parent="1">
          <mxGeometry x="520" y="150" width="200" height="60" as="geometry" />
        </mxCell>
        <mxCell id="6m_WviROTDz9loQ-pEA8-5" value="POST" style="rounded=0;whiteSpace=wrap;html=1;" vertex="1" parent="1">
          <mxGeometry x="120" y="210" width="100" height="60" as="geometry" />
        </mxCell>
        <mxCell id="6m_WviROTDz9loQ-pEA8-6" value="Register" style="rounded=0;whiteSpace=wrap;html=1;" vertex="1" parent="1">
          <mxGeometry x="220" y="210" width="100" height="60" as="geometry" />
        </mxCell>
        <mxCell id="6m_WviROTDz9loQ-pEA8-7" value="validate registration" style="rounded=0;whiteSpace=wrap;html=1;" vertex="1" parent="1">
          <mxGeometry x="320" y="210" width="100" height="60" as="geometry" />
        </mxCell>
        <mxCell id="6m_WviROTDz9loQ-pEA8-8" value="[valid] page = Login or [invalid] -no-action-" style="rounded=0;whiteSpace=wrap;html=1;" vertex="1" parent="1">
          <mxGeometry x="420" y="210" width="100" height="60" as="geometry" />
        </mxCell>
        <mxCell id="6m_WviROTDz9loQ-pEA8-9" value="Login" style="rounded=0;whiteSpace=wrap;html=1;" vertex="1" parent="1">
          <mxGeometry x="520" y="210" width="200" height="60" as="geometry" />
        </mxCell>
      </root>
    </mxGraphModel>
  </diagram>
</mxfile>
